PathFileType	4	(X/Y/Z)	C:\Users\WrightLab\Desktop\Jo\P3_26.trc
DataRate	CameraRate	NumFrames	NumMarkers	Units	OrigDataRate	OrigDataStartFrame	OrigNumFrames
100.00	100.00	       11	19	mm	100.00	320	       638
Frame#	Time	Headset_Front			Headset_Back			Headset_Left			Headset_Right			Left_Shoulder			Right_Shoulder			Sternum			C7			Left Elbow			Right Elbow			Left Wrist			Right Wrist			Left ASIS			Right ASIS			S2			Left Knee			Right Knee			Left Ankle			Right Ankle			
		X1	Y1	Z1	X2	Y2	Z2	X3	Y3	Z3	X4	Y4	Z4	X5	Y5	Z5	X6	Y6	Z6	X7	Y7	Z7	X8	Y8	Z8	X9	Y9	Z9	X10	Y10	Z10	X11	Y11	Z11	X12	Y12	Z12	X13	Y13	Z13	X14	Y14	Z14	X15	Y15	Z15	X16	Y16	Z16	X17	Y17	Z17	X18	Y18	Z18	X19	Y19	Z19	

320	3.190	-139.29628	1511.74304	667.56366	-220.10497	1610.32422	394.14099	-82.18496	1570.43286	476.36182	-270.13071	1537.52930	596.70807	-32.53979	1343.45032	372.38892	-364.06970	1345.19373	507.07687	-141.48396	1222.20435	555.84003	-220.92616	1393.31091	396.71811	71.70998	1021.65863	356.90384	-457.61520	1004.44940	510.97238	116.64194	852.99664	471.36038	-397.99005	827.29126	644.10846	-69.31653	859.78339	473.33820	-287.76746	874.71710	596.87994	-273.94144	940.58667	343.56628	-116.97856	444.18298	377.85077	-208.98921	475.39413	686.84424	-183.35295	127.92438	292.02957	-164.31305	141.25929	711.69891	
321	3.200	-136.65849	1510.46252	676.25446	-215.99861	1608.81958	402.18430	-78.67470	1569.08496	485.44284	-266.49869	1536.26196	604.70764	-28.17894	1342.06836	382.39584	-360.20663	1343.25391	514.90723	-138.18143	1221.11926	564.39685	-218.11214	1392.43945	403.98520	76.91017	1020.55151	367.50961	-453.37823	1002.48737	518.53503	122.77848	853.38580	483.01733	-394.54642	825.61993	651.15265	-64.88149	857.66412	480.92319	-282.65115	873.34033	604.22241	-269.02911	939.22955	352.27679	-114.22476	443.24884	381.76312	-204.78931	473.36469	693.56097	-182.81198	128.44824	293.54840	-152.28455	142.93452	734.25977	
322	3.210	-133.73058	1509.65247	684.71912	-212.05103	1607.26538	410.16666	-75.05656	1567.76343	493.29517	-263.72424	1534.93140	612.03967	-23.90044	1340.96326	390.82718	-356.51950	1341.89502	522.47333	-134.05318	1219.60815	572.69153	-213.18265	1389.80457	414.78220	81.87329	1019.80664	377.92606	-449.50073	1000.73669	525.85541	128.90440	853.73840	496.38467	-391.35181	823.57489	658.76886	-58.74044	856.78101	489.22397	-277.16779	870.33618	613.97327	-264.79898	937.98029	361.45908	-111.94747	442.97644	385.39038	-200.68652	471.05450	700.89789	-182.03123	128.74156	294.47769	-141.24782	145.05412	754.10742	
323	3.220	-130.60814	1508.40857	693.08081	-208.23372	1605.68787	418.29990	-71.73530	1566.34973	502.11353	-260.80328	1533.83423	619.94781	-20.15738	1339.84741	399.87946	-352.71979	1340.05945	530.88293	-130.05598	1218.41516	582.17444	-208.82573	1388.11694	423.29065	87.08615	1018.95386	388.54333	-445.76297	998.89276	533.57678	133.47087	853.72961	508.12473	-388.03793	821.40900	666.58136	-53.31618	855.54059	498.99890	-272.04468	868.56360	624.35632	-259.75366	935.94116	370.60208	-109.50841	441.92358	389.88828	-196.69864	468.83072	708.27557	-182.66240	129.35587	295.00729	-130.32500	145.95990	773.26611	
324	3.230	-127.44484	1506.82129	701.53943	-204.46999	1604.21021	426.36996	-67.75775	1564.84888	511.49405	-257.64685	1532.42346	628.50763	-16.08902	1338.10681	409.24921	-349.26791	1338.04663	539.19641	-126.12481	1216.99219	591.49603	-205.14061	1386.07678	431.83359	91.36555	1017.25897	399.23334	-441.74927	996.78247	541.67395	138.56570	853.46161	519.47418	-384.93015	819.65588	673.83807	-47.94392	854.57831	508.35114	-266.40201	866.14178	633.78918	-254.95831	933.62921	380.62634	-107.47220	441.78760	393.77402	-192.17970	467.03900	715.96509	-182.37378	130.26131	295.99890	-121.33283	149.07329	790.38318	
325	3.240	-124.31421	1505.85510	709.88690	-200.80740	1602.70471	434.53964	-64.44791	1563.62097	519.59509	-254.34720	1530.62378	636.09692	-12.67706	1336.18311	417.73434	-345.58456	1336.30005	547.10333	-122.55020	1216.67786	600.55695	-201.39276	1384.14148	440.27286	95.95248	1015.56445	410.15948	-437.52139	994.74182	549.85754	143.32724	852.36877	530.67639	-381.18347	816.85461	681.05212	-42.95744	853.81671	517.60175	-260.95087	864.59454	643.09674	-250.38921	931.76764	389.56183	-104.96938	441.19394	398.01215	-187.69965	465.34500	724.45148	-181.77213	131.42245	297.15802	-113.46418	150.23372	805.74518	
326	3.250	-121.84325	1504.82324	718.51318	-197.20999	1601.28125	442.64313	-61.20659	1562.48547	527.88947	-251.48395	1529.64014	644.37738	-8.59763	1334.88586	427.51093	-342.21997	1334.70642	555.15424	-118.11761	1215.07166	610.18829	-198.22997	1383.16785	447.15182	100.28251	1014.38202	420.39673	-433.79822	993.10040	557.45068	147.44443	851.83392	542.75391	-377.98862	814.87549	688.91998	-36.87204	852.02991	525.89178	-254.99857	862.08087	653.07751	-245.59045	930.27161	399.26389	-101.86607	440.95282	402.74454	-183.24089	464.05200	733.43329	-181.36987	132.55424	298.48624	-107.01518	151.11447	819.54736	
327	3.260	-118.94180	1503.64075	726.99036	-193.69147	1599.70850	450.80511	-57.80217	1561.04810	539.02429	-248.67950	1528.44812	652.55023	-4.91754	1332.87524	436.84094	-338.90811	1332.88977	563.97681	-115.10017	1213.90393	620.01788	-194.42642	1381.14929	455.29358	103.95787	1012.47101	430.55573	-429.30969	991.05994	566.03204	151.42738	851.38007	554.22327	-374.76355	812.52551	696.83490	-31.70500	850.08331	535.09235	-249.04536	859.48401	661.89417	-240.86060	928.26172	409.02383	-98.59248	439.67264	407.84525	-179.09181	462.16061	742.23730	-180.57498	133.57973	300.14810	-101.00608	150.23225	830.06781	
328	3.270	-116.86012	1503.09009	735.79608	-190.32202	1598.22034	458.93607	-55.00198	1560.26709	546.08783	-245.27798	1526.85217	660.11536	-0.92437	1331.06421	445.65164	-335.75873	1331.42712	571.98053	-111.33736	1213.26453	629.88641	-191.09979	1379.65356	464.26764	107.52470	1010.67706	440.61218	-425.94144	989.42566	574.27283	155.97670	849.99780	565.49536	-370.99573	810.26440	704.60370	-26.58750	848.50427	543.75903	-243.63422	857.77020	673.03027	-235.91081	926.58936	419.02728	-95.32845	439.21298	413.06815	-174.82893	460.70084	751.26532	-180.02245	134.99640	301.14389	-96.65501	148.74620	840.57751	
329	3.280	-114.10090	1502.25549	744.41528	-186.77142	1596.69531	467.05432	-51.49950	1559.50769	553.18182	-243.13841	1525.75769	668.55743	2.55433	1328.96313	455.21936	-332.52734	1329.88110	580.40131	-107.46854	1211.99988	639.63507	-186.69109	1377.20886	475.21405	110.79134	1008.00531	451.15833	-421.37720	987.47101	582.61646	159.92032	848.89069	576.93781	-367.76224	808.61560	712.97754	-20.97666	847.61108	554.08704	-239.41029	856.23419	680.34027	-231.45496	924.79242	428.78198	-91.07824	438.64233	419.18607	-170.14223	459.59576	760.46997	-178.40598	137.35561	302.84427	-93.11653	145.80113	846.21094	
330	3.290	-111.39422	1501.77417	753.06299	-183.25528	1595.13354	475.20856	-48.32137	1558.14771	564.31738	-240.51669	1524.96631	676.60132	6.73117	1326.90894	464.97656	-329.84219	1328.79456	588.62817	-105.31221	1211.66589	650.02484	-183.45287	1375.57471	484.26276	114.22326	1006.07593	461.26953	-418.35394	986.41949	591.27045	162.92720	847.77551	588.17682	-363.76392	806.46869	721.33868	-15.40430	846.32642	562.76093	-233.51135	854.15900	690.16058	-226.17464	923.29834	439.36432	-86.79620	437.94043	426.61392	-165.90427	458.91504	770.93146	-177.53194	138.38058	304.58267	-91.17902	142.79834	852.39368	
